#!OML:ASF H:\Dans Jumps\Project 1\Capture day 1\Session 1\subject.ASF
:FULLY-SPECIFIED
:DEGREES
588
root 0.658038 17.7366 6.80026 6.56291 -0.69314 -1.14521
lowerback -1.73838 -0.104626 -0.558887
upperback 2.36586 -0.170798 1.62652
thorax 3.41369 -0.122012 1.97953
lowerneck -12.1538 0.0434128 -1.79006
upperneck 22.3701 0.437458 0.0608039
head 9.007 0.0602558 0.371481
rclavicle -3.08116e-015 7.95139e-016
rhumerus -27.0582 -15.946 -78.2521
rradius 23.3357
rwrist 34.1904
rhand -19.6167 -25.5793
rfingers 7.12502
rthumb 6.70986 -55.453
lclavicle -3.08116e-015 7.95139e-016
lhumerus -23.2674 3.51896 85.6214
lradius 17.4611
lwrist 1.9142
lhand -25.7854 -5.66199
lfingers 7.12502
lthumb 0.753028 24.3164
rfemur -12.963 -2.94376 19.3128
rtibia 20.2696
rfoot -12.4645 0.339597
rtoes 12.9623
lfemur -12.6359 7.18197 -18.2577
ltibia 17.2537
lfoot -9.12742 3.27583
ltoes 0.541121
589
root 0.658324 17.7366 6.79856 6.55488 -0.689298 -1.15794
lowerback -1.74334 -0.097063 -0.543424
upperback 2.37674 -0.161488 1.63066
thorax 3.42735 -0.117189 1.97558
lowerneck -12.0931 0.0303788 -1.77912
upperneck 22.131 0.422869 0.0232079
head 8.91362 0.0522382 0.354529
rclavicle -2.6339e-015 7.15625e-015
rhumerus -27.0367 -15.9647 -78.2558
rradius 23.3329
rwrist 34.2027
rhand -19.6191 -25.5761
rfingers 7.12502
rthumb 6.7075 -55.4498
lclavicle -2.6339e-015 7.15625e-015
lhumerus -23.2458 3.50424 85.6239
lradius 17.4524
lwrist 1.8936
lhand -25.8053 -5.71488
lfingers 7.12502
lthumb 0.7338 24.2636
rfemur -12.9515 -2.94167 19.3251
rtibia 20.2547
rfoot -12.4538 0.33781
rtoes 12.967
lfemur -12.6399 7.18845 -18.2444
ltibia 17.2653
lfoot -9.13123 3.26777
ltoes 0.535981
590
root 0.658757 17.7366 6.79659 6.54944 -0.684293 -1.166
lowerback -1.74838 -0.0932151 -0.533085
upperback 2.38062 -0.156831 1.63293
thorax 3.434 -0.1147 1.97235
lowerneck -12.0257 0.0181462 -1.77732
upperneck 21.8862 0.409164 -0.0062231
head 8.81729 0.0447977 0.342053
rclavicle -1.49089e-015 6.36111e-015
rhumerus -27.0309 -15.9767 -78.2613
rradius 23.3304
rwrist 34.2166
rhand -19.616 -25.5762
rfingers 7.12502
rthumb 6.71051 -55.4498
lclavicle -1.49089e-015 6.36111e-015
lhumerus -23.2427 3.50157 85.618
lradius 17.451
lwrist 1.87541
lhand -25.8072 -5.75054
lfingers 7.12502
lthumb 0.73196 24.2279
rfemur -12.9446 -2.9437 19.3318
rtibia 20.2403
rfoot -12.4433 0.339268
rtoes 12.9725
lfemur -12.6488 7.19424 -18.2371
ltibia 17.2786
lfoot -9.13536 3.25812
ltoes 0.530788
591
root 0.659104 17.7366 6.79452 6.54571 -0.678083 -1.17353
lowerback -1.75273 -0.0897641 -0.52505
upperback 2.38288 -0.152621 1.63571
thorax 3.43861 -0.112477 1.97091
lowerneck -11.9323 0.0020776 -1.78755
upperneck 21.6071 0.389436 -0.0254477
head 8.7048 0.0349255 0.334361
rclavicle -4.96962e-015 -9.54166e-015
rhumerus -27.0306 -15.9818 -78.2673
rradius 23.3314
rwrist 34.2197
rhand -19.617 -25.5723
rfingers 7.12502
rthumb 6.70952 -55.446
lclavicle -4.96962e-015 -9.54166e-015
lhumerus -23.2418 3.50829 85.6101
lradius 17.4486
lwrist 1.8533
lhand -25.7969 -5.76585
lfingers 7.12502
lthumb 0.741943 24.2126
rfemur -12.9411 -2.94107 19.3383
rtibia 20.228
rfoot -12.4332 0.335451
rtoes 12.9831
lfemur -12.6605 7.19926 -18.2299
ltibia 17.2915
lfoot -9.13871 3.24703
ltoes 0.532834
592
root 0.659387 17.7365 6.79232 6.54487 -0.67157 -1.18196
lowerback -1.7551 -0.0863508 -0.517706
upperback 2.38163 -0.148426 1.63958
thorax 3.43849 -0.110242 1.97098
lowerneck -11.8215 -0.0153569 -1.80249
upperneck 21.3052 0.367508 -0.0418121
head 8.58179 0.0241545 0.328204
rclavicle 1.39149e-015 -1.66979e-014
rhumerus -27.0396 -15.9779 -78.2725
rradius 23.3393
rwrist 34.2133
rhand -19.6113 -25.5748
rfingers 7.12502
rthumb 6.71502 -55.4484
lclavicle 1.39149e-015 -1.66979e-014
lhumerus -23.2464 3.5198 85.6017
lradius 17.4474
lwrist 1.83651
lhand -25.7854 -5.77009
lfingers 7.12502
lthumb 0.753005 24.2083
rfemur -12.9436 -2.93302 19.3462
rtibia 20.2192
rfoot -12.4223 0.32536
rtoes 12.9949
lfemur -12.6756 7.20329 -18.2217
ltibia 17.3021
lfoot -9.13865 3.23567
ltoes 0.540455
593
root 0.659584 17.7365 6.79003 6.54506 -0.663491 -1.18737
lowerback -1.75586 -0.0834804 -0.514214
upperback 2.37958 -0.14478 1.64247
thorax 3.43667 -0.10835 1.97217
lowerneck -11.7007 -0.0348108 -1.81816
upperneck 20.9854 0.342482 -0.0582501
head 8.45147 0.0120361 0.321866
rclavicle -6.95746e-016 -5.96354e-015
rhumerus -27.0525 -15.9687 -78.2795
rradius 23.35
rwrist 34.1993
rhand -19.6078 -25.5741
rfingers 7.12502
rthumb 6.71842 -55.4475
lclavicle -6.95746e-016 -5.96354e-015
lhumerus -23.2497 3.53615 85.5918
lradius 17.4427
lwrist 1.81878
lhand -25.7732 -5.76097
lfingers 7.12502
lthumb 0.764815 24.2174
rfemur -12.9487 -2.922 19.3513
rtibia 20.2125
rfoot -12.411 0.310583
rtoes 13.011
lfemur -12.6912 7.20656 -18.2164
ltibia 17.3102
lfoot -9.13698 3.22211
ltoes 0.556546
594
root 0.659747 17.7366 6.78774 6.54643 -0.653661 -1.18923
lowerback -1.75511 -0.0820869 -0.514425
upperback 2.37574 -0.142913 1.64411
thorax 3.4322 -0.107395 1.97404
lowerneck -11.5723 -0.0554685 -1.83088
upperneck 20.6575 0.315746 -0.0789134
head 8.31764 -0.000986269 0.313527
rclavicle -1.49089e-016 9.93923e-015
rhumerus -27.0709 -15.9558 -78.2875
rradius 23.3623
rwrist 34.1827
rhand -19.607 -25.5727
rfingers 7.12502
rthumb 6.71918 -55.4461
lclavicle -1.49089e-016 9.93923e-015
lhumerus -23.2553 3.55328 85.5807
lradius 17.4378
lwrist 1.80617
lhand -25.7551 -5.72387
lfingers 7.12502
lthumb 0.782304 24.2544
rfemur -12.955 -2.91182 19.3527
rtibia 20.2066
rfoot -12.3989 0.293561
rtoes 13.0263
lfemur -12.7076 7.21001 -18.2153
ltibia 17.3165
lfoot -9.13478 3.20677
ltoes 0.567513
595
root 0.659856 17.7366 6.78544 6.54704 -0.643074 -1.19127
lowerback -1.74946 -0.0818484 -0.514452
upperback 2.36945 -0.142537 1.64536
thorax 3.4225 -0.107125 1.97534
lowerneck -11.4521 -0.0745304 -1.83278
upperneck 20.3374 0.291207 -0.109188
head 8.18849 -0.0131374 0.300556
rclavicle -4.96962e-016 3.97569e-016
rhumerus -27.0948 -15.9363 -78.2972
rradius 23.3737
rwrist 34.1648
rhand -19.6154 -25.567
rfingers 7.12502
rthumb 6.71109 -55.4407
lclavicle -4.96962e-016 3.97569e-016
lhumerus -23.2694 3.57234 85.5685
lradius 17.4345
lwrist 1.79564
lhand -25.7552 -5.71314
lfingers 7.12502
lthumb 0.78214 24.2652
rfemur -12.9599 -2.89951 19.3547
rtibia 20.2007
rfoot -12.3876 0.272272
rtoes 13.0369
lfemur -12.7216 7.21142 -18.2135
ltibia 17.3207
lfoot -9.13126 3.19282
ltoes 0.579516
